# xmcd
#
# Track frame offsets: 
#        150
#        23269
#        28726
#        42467
#        58352
#        66080
#        79317
#        88684
#        112000
#        117739
#        138771
#        147793
#
# Disc length: 2550 seconds
#
# Revision: 0
# Processed by: cddbd v1.5.2PL0 Copyright (c) Steve Scherf et al.
# Submitted via: ExactAudioCopy v0.99pb5
#
DISCID=aa09f40c
DTITLE=Camel  - The Snow Goose (2009, Japanese Deluxe Edition SHM-CD) 
DTITLE=Disc 2
DYEAR=1900
DGENRE=
TTITLE0=Rhayader Goes To Town
TTITLE1=Sanctuary
TTITLE2=The Snow Goose
TTITLE3=Migration
TTITLE4=Rhayader Alone
TTITLE5=Flight Of The Snow Goose
TTITLE6=Preparation
TTITLE7=Dunkirk
TTITLE8=Epitaph
TTITLE9=La Princesse Perdue
TTITLE10=The Great Marsh
TTITLE11=Selections From The Snow Goose (BBC2 OGWT)*
EXTD=
EXTT0=
EXTT1=
EXTT2=
EXTT3=
EXTT4=
EXTT5=
EXTT6=
EXTT7=
EXTT8=
EXTT9=
EXTT10=
EXTT11=
PLAYORDER=
